<?xml version="1.0" encoding="utf-8"?>
<svg viewBox="0 0 90.711 90.711" xmlns="http://www.w3.org/2000/svg">
  <g id="icon" transform="matrix(1, 0, 0, 1, -514.64502, -2312.643066)">
    <g id="Group_1" data-name="Group 1">
      <g id="bg" fill="#fff" stroke-linejoin="round">
        <path d="M 559.9999389648438 2401.85400390625 C 557.7294311523438 2401.85400390625 555.5948486328125 2400.969970703125 553.9893798828125 2399.36474609375 L 518.63427734375 2364.00927734375 C 517.0287475585938 2362.40380859375 516.1445922851562 2360.269287109375 516.1445922851562 2357.998779296875 C 516.1445922851562 2355.72802734375 517.0287475585938 2353.59375 518.6342163085938 2351.988525390625 L 553.9894409179688 2316.633056640625 C 555.594970703125 2315.02734375 557.7294921875 2314.143310546875 559.9999389648438 2314.143310546875 C 562.2703247070312 2314.143310546875 564.4048461914062 2315.02734375 566.01025390625 2316.633056640625 L 601.36572265625 2351.98828125 C 602.97119140625 2353.59375 603.8552856445312 2355.72802734375 603.8552856445312 2357.998779296875 C 603.8552856445312 2360.269287109375 602.97119140625 2362.40380859375 601.36572265625 2364.009033203125 L 566.0103149414062 2399.364990234375 C 564.4049682617188 2400.969970703125 562.2703857421875 2401.85400390625 559.9999389648438 2401.85400390625 Z" stroke="none"/>
        <path d="M 559.9999389648438 2315.643310546875 C 558.1301879882812 2315.643310546875 556.3723754882812 2316.371337890625 555.0501098632812 2317.69384765625 L 519.6947631835938 2353.04931640625 C 518.3726806640625 2354.37109375 517.6445922851562 2356.12890625 517.6445922851562 2357.998779296875 C 517.6445922851562 2359.86865234375 518.3727416992188 2361.62646484375 519.6949462890625 2362.948486328125 L 555.0499267578125 2398.303955078125 C 556.3721313476562 2399.6259765625 558.1300659179688 2400.35400390625 559.9999389648438 2400.35400390625 C 561.8697509765625 2400.35400390625 563.6276245117188 2399.6259765625 564.9496459960938 2398.30419921875 L 600.3051147460938 2362.948486328125 C 601.627197265625 2361.62646484375 602.3552856445312 2359.86865234375 602.3552856445312 2357.998779296875 C 602.3552856445312 2356.12890625 601.627197265625 2354.37109375 600.3050537109375 2353.049072265625 L 564.9495239257812 2317.693603515625 C 563.62744140625 2316.371337890625 561.86962890625 2315.643310546875 559.9999389648438 2315.643310546875 M 559.9999389648438 2312.643310546875 C 562.5591430664062 2312.643310546875 565.1183471679688 2313.61962890625 567.0709838867188 2315.572509765625 L 602.4263916015625 2350.927734375 C 606.3316040039062 2354.83251953125 606.3316040039062 2361.164794921875 602.4263916015625 2365.06982421875 L 567.0709838867188 2400.425537109375 C 565.1183471679688 2402.3779296875 562.5591430664062 2403.35400390625 559.9999389648438 2403.35400390625 C 557.440673828125 2403.35400390625 554.8814086914062 2402.3779296875 552.9287719726562 2400.425537109375 L 517.5736083984375 2365.06982421875 C 513.6682739257812 2361.164794921875 513.6682739257812 2354.83251953125 517.5736083984375 2350.927734375 L 552.9287719726562 2315.572509765625 C 554.8814086914062 2313.61962890625 557.440673828125 2312.643310546875 559.9999389648438 2312.643310546875 Z" stroke="none" fill="#232b38"/>
      </g>
    </g>
    <path class="st0" d="M 568.54 2362.118 C 569.82 2362.944 570.97 2363.335 571.964 2363.244 C 572.136 2366.818 570.846 2368.931 568.553 2369.81 C 566.346 2368.986 565.035 2366.964 565.133 2363.188 C 566.298 2363.254 567.438 2362.997 568.54 2362.118 L 568.54 2362.118 Z M 565.9 2348.825 L 565.892 2348.847 C 564.362 2348.555 562.154 2348.402 559.818 2348.431 C 557.466 2348.457 554.971 2348.667 552.918 2349.099 L 552.917 2349.091 C 551.125 2340.476 568.266 2341.708 565.9 2348.825 L 565.9 2348.825 Z M 568.553 2358.874 C 570.472 2358.874 572.205 2359.667 573.459 2360.949 C 574.716 2362.232 575.491 2364.006 575.491 2365.964 C 575.491 2367.922 574.716 2369.694 573.459 2370.976 C 572.205 2372.259 570.468 2373.053 568.553 2373.053 C 566.636 2373.053 564.902 2372.259 563.649 2370.976 C 563.05 2370.365 562.56 2369.643 562.215 2368.842 L 545.491 2368.842 L 546.347 2365.487 C 548.095 2357.636 552.3 2360.758 555.945 2358.147 C 555.999 2358.096 556.052 2358.047 556.106 2357.995 L 556.15 2357.179 C 555.967 2357.018 555.794 2356.84 555.632 2356.643 C 555.082 2355.978 554.852 2355.28 554.546 2354.356 C 554.513 2354.238 554.469 2354.125 554.431 2354.018 C 554.057 2354.018 553.732 2353.696 553.501 2353.239 C 553.327 2352.88 553.206 2352.45 553.162 2352.038 C 553.117 2351.616 553.149 2351.223 553.299 2350.974 L 553.103 2350.021 C 555.097 2349.603 557.527 2349.401 559.826 2349.373 C 562.067 2349.347 564.172 2349.485 565.622 2349.752 C 565.514 2350.156 565.435 2350.536 565.45 2350.713 C 565.656 2350.731 565.801 2350.847 565.899 2351.027 C 566.02 2351.253 566.057 2351.584 566.02 2351.94 C 565.994 2352.281 565.899 2352.667 565.772 2353.007 C 565.547 2353.616 565.17 2354.11 564.737 2354.155 C 564.685 2354.316 564.644 2354.477 564.6 2354.638 C 564.378 2355.401 564.203 2356 563.748 2356.584 C 563.546 2356.853 563.311 2357.094 563.066 2357.299 L 563.109 2358.026 C 563.362 2358.376 563.636 2358.654 563.95 2358.856 C 564.535 2359.171 565.26 2359.276 566.036 2359.357 C 566.821 2359.043 567.669 2358.874 568.553 2358.874 L 568.553 2358.874 Z M 572.676 2361.753 C 571.621 2360.676 570.164 2360.009 568.553 2360.009 C 566.946 2360.009 565.488 2360.676 564.43 2361.753 C 563.377 2362.832 562.725 2364.32 562.725 2365.966 C 562.725 2367.61 563.377 2369.1 564.43 2370.179 C 565.488 2371.255 566.946 2371.923 568.553 2371.923 C 570.164 2371.923 571.621 2371.255 572.676 2370.179 C 573.729 2369.1 574.382 2367.61 574.382 2365.966 C 574.386 2364.32 573.729 2362.832 572.676 2361.753 L 572.676 2361.753 Z M 557.665 2346.163 L 561.369 2346.163 C 561.457 2346.163 561.528 2346.237 561.528 2346.327 L 561.528 2347.199 C 561.528 2347.288 561.457 2347.362 561.369 2347.362 L 557.665 2347.362 C 557.576 2347.362 557.505 2347.288 557.505 2347.199 L 557.505 2346.327 C 557.505 2346.237 557.576 2346.163 557.665 2346.163 L 557.665 2346.163 Z M 562.514 2357.583 C 561.525 2358.257 560.92 2358.629 559.642 2358.596 C 558.396 2358.576 557.744 2358.147 556.749 2357.504 C 556.676 2361.751 562.62 2362.006 562.514 2357.583 L 562.514 2357.583 Z M 564 2354.499 C 564.052 2354.312 564.113 2354.114 564.181 2353.879 C 564.21 2353.779 564.302 2353.71 564.4 2353.728 C 564.69 2353.784 564.978 2353.351 565.184 2352.831 C 565.297 2352.517 565.386 2352.179 565.411 2351.873 C 565.435 2351.587 565.411 2351.337 565.33 2351.182 C 565.253 2351.035 565.035 2351.12 564.872 2350.976 C 564.045 2353.227 556.802 2354.245 553.837 2351.145 C 553.735 2351.314 553.716 2351.62 553.75 2351.961 C 553.795 2352.319 553.899 2352.716 554.058 2353.027 C 554.242 2353.395 554.477 2353.645 554.715 2353.584 C 554.813 2353.556 554.917 2353.61 554.954 2353.708 C 555.023 2353.904 555.067 2354.057 555.12 2354.21 C 556.657 2358.821 562.492 2359.184 564 2354.499 L 564 2354.499 Z M 550.815 2363.784 L 554.516 2363.784 C 554.605 2363.784 554.676 2363.857 554.676 2363.947 L 554.676 2364.82 C 554.676 2364.91 554.605 2364.983 554.516 2364.983 L 550.815 2364.983 C 550.725 2364.983 550.656 2364.91 550.656 2364.82 L 550.656 2363.947 C 550.656 2363.857 550.725 2363.784 550.815 2363.784 L 550.815 2363.784 Z M 568.548 2363.844 C 569.256 2364.298 569.894 2364.516 570.438 2364.463 C 570.533 2366.437 569.821 2367.604 568.555 2368.089 C 567.336 2367.636 566.612 2366.516 566.666 2364.435 C 567.309 2364.465 567.939 2364.326 568.548 2363.844 L 568.548 2363.844 Z" style="clip-rule: evenodd; fill-rule: evenodd;"/>
  </g>
</svg>