<?xml version="1.0" encoding="utf-8"?>
<svg viewBox="0 0 90.711 90.711" xmlns="http://www.w3.org/2000/svg">
  <g id="icon" transform="matrix(0.617046, 0, 0, 0.605041, -317.55957, -1399.243042)" style="">
    <g id="Group_1" data-name="Group 1" style="" transform="matrix(1.620625, 0, 0, 1.656749, -319.40152, -1518.826904)">
      <g id="bg" fill="#fff" stroke-linejoin="round">
        <path d="M 559.9999389648438 2401.85400390625 C 557.7294311523438 2401.85400390625 555.5948486328125 2400.969970703125 553.9893798828125 2399.36474609375 L 518.63427734375 2364.00927734375 C 517.0287475585938 2362.40380859375 516.1445922851562 2360.269287109375 516.1445922851562 2357.998779296875 C 516.1445922851562 2355.72802734375 517.0287475585938 2353.59375 518.6342163085938 2351.988525390625 L 553.9894409179688 2316.633056640625 C 555.594970703125 2315.02734375 557.7294921875 2314.143310546875 559.9999389648438 2314.143310546875 C 562.2703247070312 2314.143310546875 564.4048461914062 2315.02734375 566.01025390625 2316.633056640625 L 601.36572265625 2351.98828125 C 602.97119140625 2353.59375 603.8552856445312 2355.72802734375 603.8552856445312 2357.998779296875 C 603.8552856445312 2360.269287109375 602.97119140625 2362.40380859375 601.36572265625 2364.009033203125 L 566.0103149414062 2399.364990234375 C 564.4049682617188 2400.969970703125 562.2703857421875 2401.85400390625 559.9999389648438 2401.85400390625 Z" stroke="none"/>
        <path d="M 559.9999389648438 2315.643310546875 C 558.1301879882812 2315.643310546875 556.3723754882812 2316.371337890625 555.0501098632812 2317.69384765625 L 519.6947631835938 2353.04931640625 C 518.3726806640625 2354.37109375 517.6445922851562 2356.12890625 517.6445922851562 2357.998779296875 C 517.6445922851562 2359.86865234375 518.3727416992188 2361.62646484375 519.6949462890625 2362.948486328125 L 555.0499267578125 2398.303955078125 C 556.3721313476562 2399.6259765625 558.1300659179688 2400.35400390625 559.9999389648438 2400.35400390625 C 561.8697509765625 2400.35400390625 563.6276245117188 2399.6259765625 564.9496459960938 2398.30419921875 L 600.3051147460938 2362.948486328125 C 601.627197265625 2361.62646484375 602.3552856445312 2359.86865234375 602.3552856445312 2357.998779296875 C 602.3552856445312 2356.12890625 601.627197265625 2354.37109375 600.3050537109375 2353.049072265625 L 564.9495239257812 2317.693603515625 C 563.62744140625 2316.371337890625 561.86962890625 2315.643310546875 559.9999389648438 2315.643310546875 M 559.9999389648438 2312.643310546875 C 562.5591430664062 2312.643310546875 565.1183471679688 2313.61962890625 567.0709838867188 2315.572509765625 L 602.4263916015625 2350.927734375 C 606.3316040039062 2354.83251953125 606.3316040039062 2361.164794921875 602.4263916015625 2365.06982421875 L 567.0709838867188 2400.425537109375 C 565.1183471679688 2402.3779296875 562.5591430664062 2403.35400390625 559.9999389648438 2403.35400390625 C 557.440673828125 2403.35400390625 554.8814086914062 2402.3779296875 552.9287719726562 2400.425537109375 L 517.5736083984375 2365.06982421875 C 513.6682739257812 2361.164794921875 513.6682739257812 2354.83251953125 517.5736083984375 2350.927734375 L 552.9287719726562 2315.572509765625 C 554.8814086914062 2313.61962890625 557.440673828125 2312.643310546875 559.9999389648438 2312.643310546875 Z" stroke="none" fill="#232b38"/>
      </g>
    </g>
    <g transform="matrix(0.724068, 0, 0, 0.941445, 544.827515, 2351.824707)" style="">
      <path class="st0" d="M15.87,47.58c1.4,4.12,6.44,5.81,10.63,4.89l0.01-0.03l0.01-0.02l0.02-0.05l0.02-0.05l0,0l0.02-0.05l0.02-0.05 l0.01-0.02l0,0l0.03-0.08l0.01-0.03l0.01-0.02l0.02-0.05l0.01-0.02l0.03-0.08l0.02-0.05l0.01-0.02l0.01-0.03l0.02-0.05l0.02-0.03 l0.01-0.01l0.02-0.05l0.02-0.05l0,0l0.02-0.04l0.02-0.05l0.01-0.02l0.01-0.03l0.02-0.05l0.02-0.03l0.01-0.01l0.02-0.05l0.02-0.05 l0,0l0.04-0.09l0.01-0.02l0.01-0.02l0.02-0.04l0.02-0.04l0-0.01l0.02-0.04l0.02-0.04l0-0.01l0.02-0.04l0.02-0.04l0.01-0.02 l0.01-0.02l0.02-0.04l0.02-0.04l0-0.01l0.03-0.04l0.03-0.04l0-0.01l0.02-0.03l0.03-0.04l0.01-0.02l0.01-0.02l0.03-0.04l0.02-0.04 l0-0.01l0.03-0.04l0.03-0.04l0.01-0.01l0.02-0.03l0.03-0.04l0.03-0.04l0.03-0.04l0.02-0.04l0,0l0.03-0.04l0.03-0.04l0.01-0.01 l0.02-0.03l0.03-0.04l0.02-0.02l0.01-0.02l0.03-0.04l0.03-0.04l0,0l0.03-0.04l0.03-0.04l0.01-0.01l0.02-0.03l0.03-0.04l0.02-0.03 L28,49.75l0.03-0.04l0.03-0.04c0.97-1.28,2.17-2.22,3.5-2.96c4.2-2.34,13.67-3.03,17.48-6.47c3.45,10.16,21.56,10.54,24.8,0 c3.82,3.44,13.28,4.13,17.48,6.47c1.33,0.74,2.53,1.69,3.5,2.96l0.03,0.04l0.03,0.04l0.01,0.02l0.02,0.02l0.03,0.04l0.02,0.03 l0.01,0.01l0.03,0.04l0.03,0.04l0.01,0.01l0.02,0.03l0.03,0.04l0.02,0.02l0.01,0.02l0.03,0.04l0.03,0.04l0.06,0.1l0.02,0.02 l0.03,0.04l0.02,0.03l0.01,0.01l0.03,0.04l0.03,0.04l0.01,0.01l0.02,0.03l0.03,0.04l0.02,0.02l0.01,0.02l0.03,0.04l0.03,0.04l0,0 l0.02,0.04l0.02,0.04l0.01,0.02l0.01,0.03l0.02,0.04l0.02,0.03l0,0.01l0.05,0.09l0,0.01l0.02,0.03L95.69,51l0.01,0.03l0.01,0.02 l0.02,0.04l0.02,0.04l0,0l0.02,0.04l0.02,0.04l0.01,0.02l0.01,0.03l0.02,0.04l0.02,0.04l0,0.01l0.02,0.04l0.02,0.04l0,0.01 l0.02,0.04l0.02,0.04l0.02,0.04l0.02,0.04l0.02,0.05v0l0.02,0.05l0.02,0.05l0.01,0.02l0.01,0.03l0.02,0.05l0.02,0.04l0,0.01 l0.02,0.05l0.02,0.05l0,0.01l0.02,0.04l0.02,0.05l0.01,0.03l0.01,0.02l0.02,0.05l0.02,0.05l0,0l0.02,0.05l0.02,0.05l0.01,0.02 l0.01,0.03l0.02,0.05c4.23,1.04,9.33-0.51,10.65-4.82c2.53,2.27,8.79,2.73,11.57,4.28c0.88,0.49,1.68,1.12,2.31,1.96 c0.97,1.28,1.57,2.95,1.73,5.08l0.26,3.04H97.83H74.72H48.16H25.05H0l0.26-3.04c0.16-2.12,0.76-3.8,1.73-5.08 c0.64-0.84,1.43-1.47,2.31-1.96C7.09,50.31,13.35,49.86,15.87,47.58L15.87,47.58z M61.88,8.67l0.93,2.27l2.45,0.18l-1.87,1.59 l0.58,2.38l-2.09-1.29l-2.09,1.29l0.58-2.38l-1.87-1.59l2.45-0.18L61.88,8.67L61.88,8.67z M55.01,0h13.67 c7.54,0,9.29,12.98,11.47,19.51h-2.87c-0.02,0.64-0.04,1.29-0.09,1.97l-0.91,0.57c0.73-0.05,1.25,0.4,1.55,1.18 c0.15,0.39,0.25,0.86,0.29,1.38c0.04,0.48,0.03,1.02-0.03,1.56c-0.22,1.97-1.12,4.02-2.8,4.27c-0.07,0.01-0.15,0.01-0.22,0.01v0.25 c0,0.01,0,0.02,0,0.03c0.17,4.17-2.79,7.52-5.92,9.81c-5.54,4.06-11.08,4.57-16.71-1.25c-1.95-2.02-3.98-4.16-4.57-6.99 c-0.01-0.06-0.02-0.12-0.02-0.18h0v-1.68c-0.09,0.01-0.18,0.02-0.28,0c-1.68-0.25-2.58-2.3-2.8-4.27 c-0.06-0.54-0.07-1.08-0.03-1.56c0.04-0.52,0.14-0.99,0.29-1.38c0.33-0.84,0.91-1.31,1.74-1.15c0.4,0.07,0.76,0.28,1.07,0.63v-0.68 l-0.68-0.38c-0.1-0.69-0.1-1.4-0.01-2.12H43.6C45.76,12.99,47.48,0,55.01,0L55.01,0z M73.76,19.51H49.11V32.1 c0.67,3.24,1.1,3.11,3.18,5.14l3.6,3.52c0.65,0.54,1.38,0.85,2.16,1.03c6.08,1.43,8.17-0.18,12.06-3.96 c2.52-2.45,3.83-3.1,3.65-7.16L73.76,19.51L73.76,19.51z M75.17,29.24v-4.8c0.22-0.93,0.62-1.2,1.08-1.29 C77.5,22.95,77.36,28.95,75.17,29.24L75.17,29.24z M53.36,24.45c-0.2,0.08-0.43-0.04-0.5-0.28c-0.07-0.23,0.04-0.48,0.24-0.56 c1.57-0.61,3.17-0.57,4.74,0c0.21,0.07,0.32,0.32,0.25,0.56c-0.06,0.23-0.28,0.36-0.49,0.29c-0.26-0.09-0.52-0.17-0.78-0.23 c0.03,0.09,0.04,0.19,0.04,0.3c0,0.6-0.49,1.1-1.1,1.1c-0.61,0-1.1-0.49-1.1-1.1c0-0.15,0.03-0.29,0.08-0.42 C54.3,24.15,53.83,24.26,53.36,24.45L53.36,24.45L53.36,24.45z M66.08,24.12c-0.05,0.12-0.07,0.25-0.07,0.39 c0,0.61,0.49,1.1,1.1,1.1c0.61,0,1.1-0.49,1.1-1.1c0-0.17-0.04-0.34-0.11-0.48c0.48,0.05,0.96,0.16,1.45,0.32 c0.21,0.07,0.42-0.07,0.48-0.31s-0.06-0.48-0.27-0.55c-0.79-0.26-1.58-0.39-2.37-0.39c-0.79,0-1.57,0.13-2.34,0.39 c-0.21,0.07-0.33,0.31-0.27,0.55c0.06,0.24,0.28,0.37,0.48,0.3C65.53,24.25,65.81,24.18,66.08,24.12L66.08,24.12L66.08,24.12z M66.31,34.06L66.31,34.06L66.31,34.06L66.31,34.06z M66.31,34.06c-0.53,0.18-1.08,0.34-1.65,0.46v0c-0.58,0.16-1.12,0.26-1.6,0.27 c-0.54,0.01-1.01-0.09-1.38-0.34c-0.11-0.08-0.22-0.16-0.31-0.24c-0.09,0.09-0.19,0.17-0.3,0.24c-0.37,0.25-0.84,0.35-1.38,0.34 c-0.48-0.01-1.01-0.11-1.6-0.27v0c-0.57-0.12-1.12-0.28-1.65-0.46c-0.53-0.18-1.05-0.39-1.56-0.62c-0.24-0.11-0.34-0.39-0.22-0.61 c0.07-0.13,0.21-0.22,0.36-0.24v0c0.27-0.04,0.49-0.07,0.69-0.1l0.02,0c0.65-0.09,1.16-0.16,1.77-0.41 c0.17-0.07,0.34-0.15,0.51-0.23c0.98-0.45,2.05-0.95,3.12-0.1c0.09,0.07,0.18,0.15,0.25,0.23c0.08-0.08,0.16-0.16,0.25-0.23 c1.07-0.85,2.14-0.35,3.12,0.1c0.17,0.08,0.34,0.16,0.51,0.23c0.61,0.25,1.12,0.32,1.77,0.41l0.02,0c0.2,0.03,0.42,0.06,0.69,0.1v0 c0.15,0.02,0.29,0.11,0.36,0.24c0.12,0.23,0.03,0.5-0.22,0.61C67.36,33.67,66.84,33.88,66.31,34.06L66.31,34.06L66.31,34.06z M60.08,29.89L60.08,29.89L60.08,29.89L60.08,29.89z M60.08,29.89c-0.22-0.18-0.24-0.5-0.06-0.72c0.18-0.21,0.5-0.24,0.72-0.06 c0.25,0.21,0.5,0.33,0.73,0.33c0.23,0,0.49-0.1,0.76-0.33c0.22-0.18,0.54-0.15,0.71,0.07c0.18,0.22,0.15,0.54-0.07,0.71 c-0.47,0.39-0.94,0.57-1.42,0.56C60.97,30.45,60.52,30.26,60.08,29.89L60.08,29.89L60.08,29.89z M58.49,36.6L58.49,36.6L58.49,36.6 L58.49,36.6z M58.49,36.6c-0.26-0.14-0.36-0.46-0.22-0.72c0.14-0.26,0.46-0.36,0.72-0.22c0.82,0.44,1.63,0.66,2.43,0.66 c0.8,0,1.59-0.22,2.39-0.66c0.26-0.14,0.58-0.05,0.73,0.21c0.14,0.26,0.05,0.58-0.21,0.72c-0.96,0.53-1.93,0.79-2.91,0.79 C60.44,37.38,59.46,37.11,58.49,36.6L58.49,36.6L58.49,36.6z M47.71,29.24v-4.8c-0.22-0.93-0.62-1.2-1.08-1.29 C45.39,22.96,45.5,28.95,47.71,29.24L47.71,29.24z M89.7,34.04c-0.33,0.05-0.59,0.14-0.79,0.27c-0.16,0.11-0.27,0.24-0.35,0.4 c-0.08,0.18-0.12,0.39-0.11,0.63c0.02,0.68,0.37,1.56,1.05,2.56l2.17,3.45c1.42,2.26,2.88,3.82,4.34,4.71 c0.98,0.59,1.96,0.88,2.92,0.87c0.97-0.01,1.94-0.33,2.9-0.93c1.52-0.95,3.01-2.62,4.44-4.98l2.44-4.02 c0.52-1.19,0.67-1.94,0.48-2.33c-0.15-0.31-0.66-0.4-1.49-0.33c-0.03,0-0.06,0-0.09,0c-0.21,0.03-0.43,0.04-0.65,0.02l0.72-3.65 c-1.44-0.02-2.73-0.11-3.95-0.31H90.41l0.47,3.75C90.47,34.24,90.08,34.2,89.7,34.04L89.7,34.04z M93.63,16.89h10.29 c5.68,0,6.99,8.99,8.63,13.52h-3.31l-0.07,3.05c0.43,0.14,0.74,0.39,0.92,0.77c0.33,0.67,0.19,1.71-0.47,3.2l-0.03,0.06l-2.46,4.06 c-1.52,2.5-3.12,4.28-4.77,5.31c-1.12,0.71-2.27,1.07-3.43,1.09c-1.16,0.02-2.32-0.32-3.46-1.01c-1.6-0.97-3.16-2.64-4.67-5.03 l-2.16-3.43c-0.78-1.16-1.19-2.22-1.21-3.09c-0.01-0.4,0.06-0.76,0.2-1.08c0.15-0.33,0.39-0.61,0.71-0.82 c0.14-0.1,0.3-0.18,0.47-0.24c-0.07-0.86-0.12-1.83-0.14-2.82h-3.64C86.67,25.89,87.97,16.89,93.63,16.89L93.63,16.89z M14.97,34.04c-0.33,0.05-0.59,0.14-0.79,0.27c-0.16,0.11-0.27,0.24-0.35,0.4c-0.08,0.18-0.12,0.39-0.11,0.63 c0.02,0.68,0.37,1.56,1.05,2.56l2.17,3.45c1.42,2.26,2.88,3.82,4.34,4.71c0.98,0.59,1.96,0.88,2.92,0.87 c0.97-0.01,1.94-0.33,2.9-0.93c1.52-0.95,3.01-2.62,4.44-4.98L33.99,37c0.52-1.19,0.67-1.94,0.48-2.33 c-0.15-0.31-0.66-0.4-1.49-0.33c-0.03,0-0.06,0-0.09,0c-0.21,0.03-0.43,0.04-0.65,0.02l0.72-3.65c-1.44-0.02-2.73-0.11-3.95-0.31 H15.69l0.47,3.75C15.75,34.24,15.35,34.2,14.97,34.04L14.97,34.04z M18.91,16.89H29.2c5.68,0,6.99,8.99,8.63,13.52h-3.31 l-0.07,3.05c0.43,0.14,0.74,0.39,0.92,0.77c0.33,0.67,0.19,1.71-0.47,3.2l-0.03,0.06l-2.46,4.06c-1.52,2.5-3.12,4.28-4.77,5.31 c-1.12,0.71-2.27,1.07-3.43,1.09c-1.16,0.02-2.32-0.32-3.46-1.01c-1.6-0.97-3.16-2.64-4.67-5.03l-2.16-3.43 c-0.78-1.16-1.19-2.22-1.21-3.09c-0.01-0.4,0.06-0.76,0.2-1.08c0.15-0.33,0.39-0.61,0.71-0.82c0.14-0.1,0.3-0.18,0.47-0.24 c-0.07-0.86-0.11-1.83-0.14-2.82h-3.64C11.95,25.89,13.24,16.89,18.91,16.89L18.91,16.89z" style="clip-rule: evenodd; fill-rule: evenodd;"/>
    </g>
  </g>
</svg>