<?xml version="1.0" encoding="utf-8"?>
<svg viewBox="0 0 90.711 90.711" xmlns="http://www.w3.org/2000/svg">
  <g id="icon" transform="matrix(0.617046, 0, 0, 0.605041, -317.55957, -1399.243042)" style="">
    <g id="Group_1" data-name="Group 1" style="" transform="matrix(1.620625, 0, 0, 1.656749, -319.40152, -1518.826904)">
      <g id="bg" fill="#fff" stroke-linejoin="round">
        <path d="M 559.9999389648438 2401.85400390625 C 557.7294311523438 2401.85400390625 555.5948486328125 2400.969970703125 553.9893798828125 2399.36474609375 L 518.63427734375 2364.00927734375 C 517.0287475585938 2362.40380859375 516.1445922851562 2360.269287109375 516.1445922851562 2357.998779296875 C 516.1445922851562 2355.72802734375 517.0287475585938 2353.59375 518.6342163085938 2351.988525390625 L 553.9894409179688 2316.633056640625 C 555.594970703125 2315.02734375 557.7294921875 2314.143310546875 559.9999389648438 2314.143310546875 C 562.2703247070312 2314.143310546875 564.4048461914062 2315.02734375 566.01025390625 2316.633056640625 L 601.36572265625 2351.98828125 C 602.97119140625 2353.59375 603.8552856445312 2355.72802734375 603.8552856445312 2357.998779296875 C 603.8552856445312 2360.269287109375 602.97119140625 2362.40380859375 601.36572265625 2364.009033203125 L 566.0103149414062 2399.364990234375 C 564.4049682617188 2400.969970703125 562.2703857421875 2401.85400390625 559.9999389648438 2401.85400390625 Z" stroke="none"/>
        <path d="M 559.9999389648438 2315.643310546875 C 558.1301879882812 2315.643310546875 556.3723754882812 2316.371337890625 555.0501098632812 2317.69384765625 L 519.6947631835938 2353.04931640625 C 518.3726806640625 2354.37109375 517.6445922851562 2356.12890625 517.6445922851562 2357.998779296875 C 517.6445922851562 2359.86865234375 518.3727416992188 2361.62646484375 519.6949462890625 2362.948486328125 L 555.0499267578125 2398.303955078125 C 556.3721313476562 2399.6259765625 558.1300659179688 2400.35400390625 559.9999389648438 2400.35400390625 C 561.8697509765625 2400.35400390625 563.6276245117188 2399.6259765625 564.9496459960938 2398.30419921875 L 600.3051147460938 2362.948486328125 C 601.627197265625 2361.62646484375 602.3552856445312 2359.86865234375 602.3552856445312 2357.998779296875 C 602.3552856445312 2356.12890625 601.627197265625 2354.37109375 600.3050537109375 2353.049072265625 L 564.9495239257812 2317.693603515625 C 563.62744140625 2316.371337890625 561.86962890625 2315.643310546875 559.9999389648438 2315.643310546875 M 559.9999389648438 2312.643310546875 C 562.5591430664062 2312.643310546875 565.1183471679688 2313.61962890625 567.0709838867188 2315.572509765625 L 602.4263916015625 2350.927734375 C 606.3316040039062 2354.83251953125 606.3316040039062 2361.164794921875 602.4263916015625 2365.06982421875 L 567.0709838867188 2400.425537109375 C 565.1183471679688 2402.3779296875 562.5591430664062 2403.35400390625 559.9999389648438 2403.35400390625 C 557.440673828125 2403.35400390625 554.8814086914062 2402.3779296875 552.9287719726562 2400.425537109375 L 517.5736083984375 2365.06982421875 C 513.6682739257812 2361.164794921875 513.6682739257812 2354.83251953125 517.5736083984375 2350.927734375 L 552.9287719726562 2315.572509765625 C 554.8814086914062 2313.61962890625 557.440673828125 2312.643310546875 559.9999389648438 2312.643310546875 Z" stroke="none" fill="#232b38"/>
      </g>
    </g>
    <g transform="matrix(0.533526, 0, 0, 0.668083, 555.898193, 2349.243652)" style="">
      <path class="st0" d="M85.64,9.03c18.13-19.58,21.19-1.79,34.54,1.95c1.61,0.45,2.81,0.56,2.7,1.32c-1.17,7.67-3.67,9.12-6.46,9.19 c-3.09,0.09-5.6,0.03-7.45,0.91c-2.36,1.12-4.07,2.57-5.32,4.27l-18.96-9.67C85.29,14.76,85.62,12.12,85.64,9.03L85.64,9.03 L85.64,9.03z M101.67,30.37c-4.04,10.76,1.35,26.76-16.71,32.65c-1.09,9.16-1.04,18.33,0.24,27.49l2.19-0.23 c3.95-0.42,3.92,3.17,2.05,5.48H77.76c-0.85-10.98-2.97-23-2.09-33.48c-6.15,1.65-9.86,1.21-16.54-1.34 c-3.24-1.23-16.62-9.23-20.25-5.98c-2.04,1.84,3.41,9.18-10.05,22.21l0.24,12.89l2.28,0c3.45,0,3.26,3.45,2.01,5.7h-6.65 c-4.42,0-3.49,0.47-3.55-4.18l-0.11-10.03l-0.71-6.22c0.01-3.7,2.67-7.64,0.13-16.46c-1.68-5.83-1.54-10.48-5.93-11.12 c-4.07,8.21-7.97,15.73-11.39,24.34c-0.23,0.58-0.55,1.13-0.83,1.7c-3.9,8.98-5.53,2.23-3.35-3.1l1.46-3.56 c1.87-7.53,7.14-21.65,12.11-26.89c18.74-19.77,56.72-1.07,67.91-18.18L101.67,30.37L101.67,30.37L101.67,30.37z" style="clip-rule: evenodd; fill-rule: evenodd;"/>
    </g>
  </g>
</svg>