<?xml version="1.0" encoding="utf-8"?>
<svg viewBox="0 0 122.88 120.23" style="enable-background:new 0 0 122.88 120.23" xmlns="http://www.w3.org/2000/svg" xmlns:bx="https://boxy-svg.com">
  <defs>
    <radialGradient gradientUnits="userSpaceOnUse" cx="38.47" cy="9.949" r="8.5" id="gradient-0" gradientTransform="matrix(-1.892212, 0.647694, -0.854085, -2.495194, 158.230515, 19.805979)">
      <stop offset="0" style="stop-color: rgb(3, 3, 3);"/>
      <stop offset="1" style="stop-color: #758d29"/>
    </radialGradient>
    <filter id="grayscale-filter-0" x="-500%" y="-500%" width="1000%" height="1000%" bx:preset="grayscale 1 1">
      <feColorMatrix type="matrix" values="0.213 0.715 0.072 0 0 0.213 0.715 0.072 0 0 0.213 0.715 0.072 0 0 0 0 0 1 0"/>
    </filter>
    <style type="text/css">.st0{fill-rule:evenodd;clip-rule:evenodd;}</style>
  </defs>
  <g style="" transform="matrix(0.116039, 0, 0, 0.122377, 48.227089, 55.254307)"/>
  <rect style="fill-rule: evenodd; stroke-dashoffset: 1px; stroke-linejoin: round; stroke: url(#gradient-0); fill: rgb(255, 255, 255); paint-order: stroke; filter: url(#grayscale-filter-0);" x="16.003" y="51.424" width="34" height="34" transform="matrix(0.707107, 0.707107, -0.707107, 0.707107, 65.593819, 8.151889)" rx="1" ry="1"/>
  <path class="st0" d="M 48.851 81.614 C 50.131 82.44 51.281 82.831 52.275 82.74 C 52.447 86.314 51.157 88.427 48.864 89.306 C 46.657 88.482 45.346 86.46 45.444 82.684 C 46.609 82.75 47.749 82.493 48.851 81.614 L 48.851 81.614 Z M 46.211 68.321 L 46.203 68.343 C 44.673 68.051 42.465 67.898 40.129 67.927 C 37.777 67.953 35.282 68.163 33.229 68.595 L 33.228 68.587 C 31.436 59.972 48.577 61.204 46.211 68.321 L 46.211 68.321 Z M 48.864 78.37 C 50.783 78.37 52.516 79.163 53.77 80.445 C 55.027 81.728 55.802 83.502 55.802 85.46 C 55.802 87.418 55.027 89.19 53.77 90.472 C 52.516 91.755 50.779 92.549 48.864 92.549 C 46.947 92.549 45.213 91.755 43.96 90.472 C 43.361 89.861 42.871 89.139 42.526 88.338 L 25.802 88.338 L 26.658 84.983 C 28.406 77.132 32.611 80.254 36.256 77.643 C 36.31 77.592 36.363 77.543 36.417 77.491 L 36.461 76.675 C 36.278 76.514 36.105 76.336 35.943 76.139 C 35.393 75.474 35.163 74.776 34.857 73.852 C 34.824 73.734 34.78 73.621 34.742 73.514 C 34.368 73.514 34.043 73.192 33.812 72.735 C 33.638 72.376 33.517 71.946 33.473 71.534 C 33.428 71.112 33.46 70.719 33.61 70.47 L 33.414 69.517 C 35.408 69.099 37.838 68.897 40.137 68.869 C 42.378 68.843 44.483 68.981 45.933 69.248 C 45.825 69.652 45.746 70.032 45.761 70.209 C 45.967 70.227 46.112 70.343 46.21 70.523 C 46.331 70.749 46.368 71.08 46.331 71.436 C 46.305 71.777 46.21 72.163 46.083 72.503 C 45.858 73.112 45.481 73.606 45.048 73.651 C 44.996 73.812 44.955 73.973 44.911 74.134 C 44.689 74.897 44.514 75.496 44.059 76.08 C 43.857 76.349 43.622 76.59 43.377 76.795 L 43.42 77.522 C 43.673 77.872 43.947 78.15 44.261 78.352 C 44.846 78.667 45.571 78.772 46.347 78.853 C 47.132 78.539 47.98 78.37 48.864 78.37 L 48.864 78.37 Z M 52.987 81.249 C 51.932 80.172 50.475 79.505 48.864 79.505 C 47.257 79.505 45.799 80.172 44.741 81.249 C 43.688 82.328 43.036 83.816 43.036 85.462 C 43.036 87.106 43.688 88.596 44.741 89.675 C 45.799 90.751 47.257 91.419 48.864 91.419 C 50.475 91.419 51.932 90.751 52.987 89.675 C 54.04 88.596 54.693 87.106 54.693 85.462 C 54.697 83.816 54.04 82.328 52.987 81.249 L 52.987 81.249 Z M 37.976 65.659 L 41.68 65.659 C 41.768 65.659 41.839 65.733 41.839 65.823 L 41.839 66.695 C 41.839 66.784 41.768 66.858 41.68 66.858 L 37.976 66.858 C 37.887 66.858 37.816 66.784 37.816 66.695 L 37.816 65.823 C 37.816 65.733 37.887 65.659 37.976 65.659 L 37.976 65.659 Z M 42.825 77.079 C 41.836 77.753 41.231 78.125 39.953 78.092 C 38.707 78.072 38.055 77.643 37.06 77 C 36.987 81.247 42.931 81.502 42.825 77.079 L 42.825 77.079 Z M 44.311 73.995 C 44.363 73.808 44.424 73.61 44.492 73.375 C 44.521 73.275 44.613 73.206 44.711 73.224 C 45.001 73.28 45.289 72.847 45.495 72.327 C 45.608 72.013 45.697 71.675 45.722 71.369 C 45.746 71.083 45.722 70.833 45.641 70.678 C 45.564 70.531 45.346 70.616 45.183 70.472 C 44.356 72.723 37.113 73.741 34.148 70.641 C 34.046 70.81 34.027 71.116 34.061 71.457 C 34.106 71.815 34.21 72.212 34.369 72.523 C 34.553 72.891 34.788 73.141 35.026 73.08 C 35.124 73.052 35.228 73.106 35.265 73.204 C 35.334 73.4 35.378 73.553 35.431 73.706 C 36.968 78.317 42.803 78.68 44.311 73.995 L 44.311 73.995 Z M 31.126 83.28 L 34.827 83.28 C 34.916 83.28 34.987 83.353 34.987 83.443 L 34.987 84.316 C 34.987 84.406 34.916 84.479 34.827 84.479 L 31.126 84.479 C 31.036 84.479 30.967 84.406 30.967 84.316 L 30.967 83.443 C 30.967 83.353 31.036 83.28 31.126 83.28 L 31.126 83.28 Z M 48.859 83.34 C 49.567 83.794 50.205 84.012 50.749 83.959 C 50.844 85.933 50.132 87.1 48.866 87.585 C 47.647 87.132 46.923 86.012 46.977 83.931 C 47.62 83.961 48.25 83.822 48.859 83.34 L 48.859 83.34 Z"/>
</svg>