<?xml version="1.0" encoding="utf-8"?>
<svg viewBox="0 0 90.711 90.711" xmlns="http://www.w3.org/2000/svg">
  <g id="icon" transform="matrix(0.617046, 0, 0, 0.605041, -317.55957, -1399.243042)" style="">
    <g id="Group_1" data-name="Group 1" style="" transform="matrix(1.620625, 0, 0, 1.656749, -319.578003, -1519.006836)">
      <g id="bg" fill="#fff" stroke-linejoin="round">
        <path d="M 559.9999389648438 2401.85400390625 C 557.7294311523438 2401.85400390625 555.5948486328125 2400.969970703125 553.9893798828125 2399.36474609375 L 518.63427734375 2364.00927734375 C 517.0287475585938 2362.40380859375 516.1445922851562 2360.269287109375 516.1445922851562 2357.998779296875 C 516.1445922851562 2355.72802734375 517.0287475585938 2353.59375 518.6342163085938 2351.988525390625 L 553.9894409179688 2316.633056640625 C 555.594970703125 2315.02734375 557.7294921875 2314.143310546875 559.9999389648438 2314.143310546875 C 562.2703247070312 2314.143310546875 564.4048461914062 2315.02734375 566.01025390625 2316.633056640625 L 601.36572265625 2351.98828125 C 602.97119140625 2353.59375 603.8552856445312 2355.72802734375 603.8552856445312 2357.998779296875 C 603.8552856445312 2360.269287109375 602.97119140625 2362.40380859375 601.36572265625 2364.009033203125 L 566.0103149414062 2399.364990234375 C 564.4049682617188 2400.969970703125 562.2703857421875 2401.85400390625 559.9999389648438 2401.85400390625 Z" stroke="none"/>
        <path d="M 559.9999389648438 2315.643310546875 C 558.1301879882812 2315.643310546875 556.3723754882812 2316.371337890625 555.0501098632812 2317.69384765625 L 519.6947631835938 2353.04931640625 C 518.3726806640625 2354.37109375 517.6445922851562 2356.12890625 517.6445922851562 2357.998779296875 C 517.6445922851562 2359.86865234375 518.3727416992188 2361.62646484375 519.6949462890625 2362.948486328125 L 555.0499267578125 2398.303955078125 C 556.3721313476562 2399.6259765625 558.1300659179688 2400.35400390625 559.9999389648438 2400.35400390625 C 561.8697509765625 2400.35400390625 563.6276245117188 2399.6259765625 564.9496459960938 2398.30419921875 L 600.3051147460938 2362.948486328125 C 601.627197265625 2361.62646484375 602.3552856445312 2359.86865234375 602.3552856445312 2357.998779296875 C 602.3552856445312 2356.12890625 601.627197265625 2354.37109375 600.3050537109375 2353.049072265625 L 564.9495239257812 2317.693603515625 C 563.62744140625 2316.371337890625 561.86962890625 2315.643310546875 559.9999389648438 2315.643310546875 M 559.9999389648438 2312.643310546875 C 562.5591430664062 2312.643310546875 565.1183471679688 2313.61962890625 567.0709838867188 2315.572509765625 L 602.4263916015625 2350.927734375 C 606.3316040039062 2354.83251953125 606.3316040039062 2361.164794921875 602.4263916015625 2365.06982421875 L 567.0709838867188 2400.425537109375 C 565.1183471679688 2402.3779296875 562.5591430664062 2403.35400390625 559.9999389648438 2403.35400390625 C 557.440673828125 2403.35400390625 554.8814086914062 2402.3779296875 552.9287719726562 2400.425537109375 L 517.5736083984375 2365.06982421875 C 513.6682739257812 2361.164794921875 513.6682739257812 2354.83251953125 517.5736083984375 2350.927734375 L 552.9287719726562 2315.572509765625 C 554.8814086914062 2313.61962890625 557.440673828125 2312.643310546875 559.9999389648438 2312.643310546875 Z" stroke="none" fill="#232b38"/>
      </g>
    </g>
    <g transform="matrix(0.57364, 0, 0, 0.636047, 553.787292, 2354.294678)" style="">
      <path class="st0" d="M26.76,22.96c-4.81,0-10.08-0.78-14.56,1v-0.12c-1.04,0.46-2.06,1.09-3.04,1.86l-0.03,0.03 c-0.91,0.72-1.78,1.57-2.59,2.53l0,0.01c-0.09,0.11-0.18,0.22-0.27,0.33l0,0c-0.04,0.05-0.08,0.1-0.13,0.16l-0.01,0.02 C6.03,28.89,5.94,29,5.86,29.11l-0.01,0.01c-0.04,0.05-0.07,0.1-0.11,0.15l-0.02,0.02L5.72,29.3c-0.04,0.05-0.07,0.1-0.11,0.15 l-0.03,0.05l-0.1,0.14l-0.01,0.02c-0.04,0.05-0.08,0.11-0.12,0.16l-0.03,0.04l-0.09,0.12L5.2,30.02c-0.04,0.05-0.07,0.1-0.1,0.15 l-0.01,0.01l-0.02,0.03c-0.03,0.04-0.06,0.09-0.09,0.13L4.94,30.4c-0.04,0.05-0.07,0.11-0.11,0.16l0,0.01 c-0.04,0.05-0.07,0.11-0.11,0.17L4.7,30.78l-0.09,0.14l-0.02,0.04c-0.03,0.06-0.07,0.11-0.1,0.17l-0.03,0.05l-0.07,0.12l-0.04,0.07 c-0.03,0.05-0.06,0.11-0.1,0.16l-0.02,0.03L4.15,31.7l-0.03,0.06c-0.03,0.06-0.06,0.11-0.09,0.17l0,0.01l0,0 c-0.03,0.06-0.07,0.12-0.1,0.18l-0.02,0.04l-0.08,0.15l-0.02,0.04L3.7,32.52l-0.03,0.07l-0.07,0.14l-0.02,0.04 c-0.03,0.06-0.06,0.12-0.09,0.18L3.46,33l-0.07,0.14l-0.02,0.05c-0.03,0.06-0.06,0.13-0.09,0.19c-1.7,3.59-2.15,6.29-2.43,10.12 C0.28,47.36-0.02,51.19,0,54.96c0.01,0.09,0.03,0.18,0.05,0.27l0,0.01c0.02,0.08,0.04,0.17,0.06,0.25l0,0.01 c0.02,0.08,0.04,0.16,0.06,0.23l0.01,0.02c0.02,0.07,0.04,0.15,0.07,0.22l0.01,0.02c0.02,0.07,0.05,0.13,0.07,0.2l0.01,0.03 c0.02,0.06,0.05,0.12,0.08,0.18l0.02,0.04c0.03,0.06,0.05,0.11,0.08,0.17c1.69,3.32,6.41,2.42,8.01-0.28l0.01-0.02l0.01-0.02 c0.02-0.03,0.04-0.06,0.05-0.1c0.02-0.03,0.03-0.06,0.04-0.09c0.01-0.02,0.02-0.05,0.03-0.07c0.02-0.04,0.04-0.08,0.05-0.11 l0.02-0.05c0.02-0.05,0.04-0.09,0.06-0.14l0.01-0.03c0.02-0.05,0.04-0.1,0.05-0.16l0-0.01c0.02-0.06,0.04-0.12,0.05-0.18l0-0.01 c0.02-0.06,0.03-0.12,0.04-0.18l0,0c0.01-0.06,0.02-0.13,0.03-0.19l0.91-11.84c0.14-1.79,0.26-3,0.98-4.7 c0.34-0.8,0.75-1.49,1.23-2.05l0.07,3.17v0L12.58,58L6.64,93.54c0.07,6.96,9.44,6.92,10.46,1.18l5.38-31.7l5.26,31.21 c2.21,7.79,11.33,4.88,10.46-1.05l-1.56-11.92L32.54,57.8l0.32-18.62v0.36l0.01-0.5l4.04,5.58c0.8,1.11,1.98,1.79,3.23,2l9.51,1.83 v15.28h-8.24c-1.04,0-1.91,0.87-1.91,1.91c0,1.04,0.87,1.91,1.91,1.91h38.44v8.54c-0.23,0.07-0.44,0.23-0.64,0.4h-0.03L67.26,87.8 c-0.77,0.7-0.8,1.91-0.07,2.68c0.7,0.77,1.91,0.8,2.68,0.07l9.95-9.44v8.61c0,1.04,0.87,1.91,1.91,1.91c1.04,0,1.91-0.87,1.91-1.91 v-8.24l9.58,9.08c0.74,0.74,1.94,0.7,2.68-0.07c0.74-0.74,0.7-1.94-0.07-2.68L83.91,76.48c-0.1-0.07-0.17-0.13-0.27-0.2v-8.74 h37.33c1.04,0,1.91-0.87,1.91-1.91c0-1.04-0.87-1.91-1.91-1.91h-8.34V16.49h8.14c1.04,0,1.91-0.87,1.91-1.91 c0-1.04-0.87-1.91-1.91-1.91h-37.4V7.11c0-1.04-0.87-1.91-1.91-1.91s-1.91,0.87-1.91,1.91v5.56H41.42c-1.04,0-1.91,0.87-1.91,1.91 c0,1.04,0.87,1.91,1.91,1.91h8.24v21.74l-5.78-1.11l-8.1-11.19c-0.74-1.02-1.79-1.68-2.93-1.94C31.06,23.3,29.05,22.96,26.76,22.96 L26.76,22.96z M54.72,39.21L66.36,27c0.47-0.49,1.25-0.51,1.75-0.04c0.49,0.47,0.51,1.25,0.04,1.75L56.96,40.44 c1.2,1.14,1.81,2.84,1.48,4.59c-0.46,2.42-2.59,4.1-4.97,4.08v14.63h55.37V16.49H53.47v22.48l0.98,0.19 C54.54,39.17,54.63,39.19,54.72,39.21L54.72,39.21z M22.49,0c5.86,0,10.62,4.75,10.62,10.62c0,5.86-4.75,10.62-10.62,10.62 c-5.86,0-10.62-4.75-10.62-10.62C11.87,4.75,16.62,0,22.49,0L22.49,0z" style="clip-rule: evenodd; fill-rule: evenodd;"/>
    </g>
  </g>
</svg>