<?xml version="1.0" encoding="utf-8"?>
<svg viewBox="0 0 90.711 90.711" xmlns="http://www.w3.org/2000/svg">
  <g id="icon" transform="matrix(0.617046, 0, 0, 0.605041, -317.55957, -1399.243042)" style="">
    <g id="Group_1" data-name="Group 1" style="" transform="matrix(1.620625, 0, 0, 1.656749, -319.40152, -1518.826904)">
      <g id="bg" fill="#fff" stroke-linejoin="round">
        <path d="M 559.9999389648438 2401.85400390625 C 557.7294311523438 2401.85400390625 555.5948486328125 2400.969970703125 553.9893798828125 2399.36474609375 L 518.63427734375 2364.00927734375 C 517.0287475585938 2362.40380859375 516.1445922851562 2360.269287109375 516.1445922851562 2357.998779296875 C 516.1445922851562 2355.72802734375 517.0287475585938 2353.59375 518.6342163085938 2351.988525390625 L 553.9894409179688 2316.633056640625 C 555.594970703125 2315.02734375 557.7294921875 2314.143310546875 559.9999389648438 2314.143310546875 C 562.2703247070312 2314.143310546875 564.4048461914062 2315.02734375 566.01025390625 2316.633056640625 L 601.36572265625 2351.98828125 C 602.97119140625 2353.59375 603.8552856445312 2355.72802734375 603.8552856445312 2357.998779296875 C 603.8552856445312 2360.269287109375 602.97119140625 2362.40380859375 601.36572265625 2364.009033203125 L 566.0103149414062 2399.364990234375 C 564.4049682617188 2400.969970703125 562.2703857421875 2401.85400390625 559.9999389648438 2401.85400390625 Z" stroke="none"/>
        <path d="M 559.9999389648438 2315.643310546875 C 558.1301879882812 2315.643310546875 556.3723754882812 2316.371337890625 555.0501098632812 2317.69384765625 L 519.6947631835938 2353.04931640625 C 518.3726806640625 2354.37109375 517.6445922851562 2356.12890625 517.6445922851562 2357.998779296875 C 517.6445922851562 2359.86865234375 518.3727416992188 2361.62646484375 519.6949462890625 2362.948486328125 L 555.0499267578125 2398.303955078125 C 556.3721313476562 2399.6259765625 558.1300659179688 2400.35400390625 559.9999389648438 2400.35400390625 C 561.8697509765625 2400.35400390625 563.6276245117188 2399.6259765625 564.9496459960938 2398.30419921875 L 600.3051147460938 2362.948486328125 C 601.627197265625 2361.62646484375 602.3552856445312 2359.86865234375 602.3552856445312 2357.998779296875 C 602.3552856445312 2356.12890625 601.627197265625 2354.37109375 600.3050537109375 2353.049072265625 L 564.9495239257812 2317.693603515625 C 563.62744140625 2316.371337890625 561.86962890625 2315.643310546875 559.9999389648438 2315.643310546875 M 559.9999389648438 2312.643310546875 C 562.5591430664062 2312.643310546875 565.1183471679688 2313.61962890625 567.0709838867188 2315.572509765625 L 602.4263916015625 2350.927734375 C 606.3316040039062 2354.83251953125 606.3316040039062 2361.164794921875 602.4263916015625 2365.06982421875 L 567.0709838867188 2400.425537109375 C 565.1183471679688 2402.3779296875 562.5591430664062 2403.35400390625 559.9999389648438 2403.35400390625 C 557.440673828125 2403.35400390625 554.8814086914062 2402.3779296875 552.9287719726562 2400.425537109375 L 517.5736083984375 2365.06982421875 C 513.6682739257812 2361.164794921875 513.6682739257812 2354.83251953125 517.5736083984375 2350.927734375 L 552.9287719726562 2315.572509765625 C 554.8814086914062 2313.61962890625 557.440673828125 2312.643310546875 559.9999389648438 2312.643310546875 Z" stroke="none" fill="#232b38"/>
      </g>
    </g>
    <g transform="matrix(0.768956, 0, 0, 0.728055, 544.257568, 2353.669434)" style="">
      <path class="st0" d="M94.42,18.73l-17.98-0.1V6.53c0-1.8-0.73-3.43-1.92-4.61C73.34,0.73,71.71,0,69.91,0H20.07 c-1.8,0-3.43,0.73-4.61,1.92c-1.18,1.18-1.92,2.81-1.92,4.61c0,0.98,0.79,1.77,1.77,1.77c0.98,0,1.77-0.79,1.77-1.77 c0-0.82,0.34-1.57,0.88-2.11c0.54-0.54,1.29-0.88,2.11-0.88h49.84c0.82,0,1.57,0.34,2.11,0.88c0.54,0.54,0.88,1.29,0.88,2.11v55.41 h-9.98c-0.98,0-1.77,0.79-1.77,1.77c0,0.98,0.79,1.77,1.77,1.77h11.75c0.98,0,1.77-0.79,1.77-1.77v-2.01h10.68 c0.81-18.42,27.26-20.96,29.95,0h5.81l-1.79-19.22l-19.07-7.3L94.42,18.73L94.42,18.73z M2.65,37.54c-1.47,0-2.65-0.8-2.65-1.78 c0-0.98,1.19-1.78,2.65-1.78h23.89c1.47,0,2.65,0.8,2.65,1.78c0,0.98-1.19,1.78-2.65,1.78H2.65L2.65,37.54z M8.12,27.96 c-1.1,0-1.99-0.79-1.99-1.77c0-0.98,0.89-1.77,1.99-1.77h18.43c1.1,0,1.99,0.79,1.99,1.77c0,0.98-0.89,1.77-1.99,1.77H8.12 L8.12,27.96z M10.65,18.38c-1.1,0-1.99-0.79-1.99-1.77c0-0.98,0.89-1.77,1.99-1.77h15.89c1.1,0,1.99,0.79,1.99,1.77 c0,0.98-0.89,1.77-1.99,1.77H10.65L10.65,18.38z M26.46,61.93c0.98,0,1.77,0.79,1.77,1.77c0,0.98-0.79,1.77-1.77,1.77h-6.39 c-1.79,0-3.42-0.78-4.61-2.01c-1.18-1.23-1.92-2.91-1.92-4.69v-13c0-0.98,0.79-1.77,1.77-1.77c0.98,0,1.77,0.79,1.77,1.77v13 c0,0.85,0.35,1.66,0.92,2.25c0.54,0.56,1.27,0.92,2.06,0.92H26.46L26.46,61.93z M44.46,50.37c-6.62,0-11.99,5.37-11.99,11.99 c0,6.62,5.37,11.99,11.99,11.99c6.62,0,11.99-5.37,11.99-11.99C56.44,55.74,51.08,50.37,44.46,50.37L44.46,50.37z M44.46,57.75 c-2.54,0-4.61,2.06-4.61,4.61c0,2.54,2.06,4.61,4.61,4.61c2.54,0,4.61-2.06,4.61-4.61C49.06,59.81,47,57.75,44.46,57.75 L44.46,57.75z M102.06,50.37c-6.62,0-11.99,5.37-11.99,11.99c0,6.62,5.37,11.99,11.99,11.99s11.99-5.37,11.99-11.99 C114.05,55.74,108.68,50.37,102.06,50.37L102.06,50.37z M102.06,57.75c-2.54,0-4.61,2.06-4.61,4.61c0,2.54,2.06,4.61,4.61,4.61 s4.61-2.06,4.61-4.61C106.67,59.81,104.61,57.75,102.06,57.75L102.06,57.75z M89.79,23.81l-8.93-0.1V35.2h14.97L89.79,23.81 L89.79,23.81z" style="clip-rule: evenodd; fill-rule: evenodd;"/>
    </g>
  </g>
</svg>