<?xml version="1.0" encoding="utf-8"?>
<!-- Generator: Adobe Illustrator 19.0.0, SVG Export Plug-In . SVG Version: 6.00 Build 0)  -->
<svg version="1.1" id="Layer_1" xmlns="http://www.w3.org/2000/svg" xmlns:xlink="http://www.w3.org/1999/xlink" x="0px" y="0px"
	 viewBox="0 0 500 500" style="enable-background:new 0 0 500 500;" xml:space="preserve">
<style type="text/css">
	.st0{fill:#162959;}
</style>
<g id="XMLID_1_">
	<path id="XMLID_2_" class="st0" d="M249.9,58.3h0.3c0.3,0.5,0.6,0.9,1,1.4c4.9,4.6,9.5,9.5,14.3,14.2
		c54.4,54.4,108.8,108.8,163.2,163.2c1.2,1.3,2.5,2.5,3.8,3.6v0.3c-1.2,0.6-2.1,1.7-3,2.7c-34.1,34.1-68.2,68.2-102.3,102.2
		c0-28.4,0-56.8,0-85.2c6.5-6.7,13.1-13.3,19.6-19.9c-32.3-32.2-64.5-64.5-96.8-96.8c-32.3,32.3-64.6,64.5-96.8,96.8
		c6.6,6.6,13.1,13.2,19.7,19.8c0,28.4,0,56.9,0,85.3c-33.7-33.7-67.5-67.4-101.2-101.2c-1.3-1.4-2.7-2.6-4.1-3.8v-0.3
		c1.3-0.7,2.3-1.9,3.3-3c57.7-57.7,115.4-115.3,173.1-173C245.9,62.5,248.1,60.6,249.9,58.3z"/>
	<path id="XMLID_3_" class="st0" d="M230.2,203.5c6.6-6.6,13.2-13.1,19.8-19.7c25.6,25.6,51.2,51.1,76.7,76.7
		c-25.6,25.6-51.2,51.1-76.7,76.7c-25.6-25.5-51.2-51.1-76.8-76.6C192,241.4,211.2,222.5,230.2,203.5z"/>
	<path id="XMLID_4_" class="st0" d="M136.2,359c3-0.3,6.1,0.3,8.7,1.9c2.5,1.5,4.2,3.9,5.7,6.3c3.8,5.9,5.9,12.7,9,19
		c22.8,0,45.6,0,68.4,0c1.6,3.1,3.3,6.2,4.9,9.2c-3.9,0-7.8,0-11.7,0.1c0,15.4,0.1,30.8,0,46.3c-1.7-0.7-3.2-1.9-4.7-2.9
		c-1.9-1.3-3.8-2.6-5.7-3.8c0-8.5,0-17.1-0.1-25.6c-2.2,0.7-4.3,1.6-6,3.1c-3.3,2.8-5.3,6.8-7.5,10.5c-2.8-1.9-5.6-3.7-8.4-5.6
		c1.3-2.1,2.6-4.2,3.9-6.3c-1.7-1.1-3.6-2-5.6-1.6c-3,0.5-5.4,2.8-6.3,5.6c-1.3,4.1-1,8.9,1.2,12.6c2.3,3.9,5.7,7.1,9.6,9.5
		c-1,1.3-2,2.6-3.1,3.9c-4-3.3-8.1-6.6-11.2-10.8c-3.2-4.4-5.6-9.7-5.7-15.3c-0.2-5.1,2.6-10.4,7.3-12.6c3.2-1.5,6.9-1.4,10.1,0.1
		c2.6,1.1,4.6,3.1,6.3,5.3c1.9-1.4,3.7-3,6-3.7c3.1-1.1,6.5-0.5,9.5,0.8c0-3.1,0-6.2,0-9.3c-16.4,0-32.8,0-49.2,0
		c0,15.4,0,30.8,0,46.3c-3.7-1.9-6.9-4.5-10.4-6.7c0-4.9,0-9.7,0-14.6c-3.3,0.6-6.8,1.2-10.1,0.1c-2.6-0.8-4.7-2.5-6.7-4.2
		c-1.9,2.5-4.9,3.7-7.5,5.2c4.3,5.5,8.7,10.9,13.1,16.3c-1.4,1.2-2.7,2.6-4.2,3.7c-0.6,0.4-1.2-0.2-1.5-0.7
		c-5.5-7-11.1-14-16.5-21.1c-1.9-2.7-4.2-5.6-3.9-9.1c0.1-2.4,2.7-4,4.9-3.5c1.6,0.3,2.7,1.6,3.8,2.8c1.4-0.4,3.2-1.2,3.4-2.9
		c0.2-3.8,0-7.6,0.1-11.4c-5.4-0.1-10.9-0.1-16.4,0c-1.7-3.1-3.3-6.1-4.9-9.2c16.9-0.1,33.7,0,50.6-0.1c-2.4-4.5-4.2-9.4-7.7-13.2
		c-2.3-2.5-5.8-4-9.2-3.7C137.8,365.8,137,362.4,136.2,359 M136.6,395.4c0,5.2,0,10.4,0,15.5c1.4,0.8,3,1.3,4.7,1.3
		c3.7,0.1,7.1-1.6,10-3.7c0-4.4,0-8.8,0-13.1C146.4,395.4,141.5,395.3,136.6,395.4z"/>
	<path id="XMLID_7_" class="st0" d="M262.4,390.1c3.7-3.2,8.7-4.4,13.5-4c3.7,0.2,7.4,1.3,10.4,3.6c-0.8,2.1-1.4,4.2-2.1,6.3
		c-0.2,0.6-0.6,1.1-1,1.6c-1.1-1.5-1.8-3.5-3.3-4.7c-3.7-3.2-10.3-2.9-13,1.4c-1.9,2.9-0.7,6.9,2,8.9c4.5,3.4,10.2,4.9,14.6,8.5
		c2,1.6,3.6,3.8,4.4,6.2c2,5.8,0.2,12.7-4.3,16.8c-3.4,3.1-7.9,4.6-12.4,4.9c-4.9,0.4-10.1-0.4-14.3-3.1c0.8-3.2,1.7-6.3,2.2-9.6
		c0.5,0,1,0,1.4,0c0.7,3.1,2.7,6,5.7,7.1c3.4,1.3,7.5,1.3,10.5-0.8c3-2.1,3.6-6.5,1.8-9.6c-1-1.8-2.8-2.8-4.5-3.9
		c-4.5-2.7-9.7-4.3-13.3-8.2C255.3,405.5,256.4,395.3,262.4,390.1z"/>
	<path id="XMLID_8_" class="st0" d="M311.7,386.8c1.9,0.2,3.9,0.3,5.8,0c6.6,17.4,13.2,34.9,20.7,51.9c-4.3-0.4-8.7-0.3-13.1-0.1
		c-1.5-5.1-3.2-10.2-5.1-15.2c-5.7-0.1-11.5-0.2-17.2,0c-2.1,5-3.7,10.2-5.2,15.3c-2.4-0.4-4.9-0.4-7.3,0
		C297.8,421.5,305,404.2,311.7,386.8 M309.9,405.8c-1.8,4.3-3.4,8.7-5,13.1c4.5,0,9,0,13.5,0.1c-1.9-5.9-4.2-11.7-6.5-17.5
		C311,402.8,310.5,404.3,309.9,405.8z"/>
	<path id="XMLID_11_" class="st0" d="M343.6,387.1c4.1,0.4,8.2,0.4,12.3,0c-0.5,9.3-0.6,18.6-0.6,27.9c0,7.9,0.1,15.9,0.6,23.8
		c-4.1-0.4-8.2-0.4-12.3,0c0.7-11,0.6-21.9,0.6-32.9C344.1,399.5,344,393.3,343.6,387.1z"/>
	<path id="XMLID_12_" class="st0" d="M366.1,387.1c4.1,0.4,8.2,0.4,12.3,0c-0.9,15.3-0.6,30.6-0.4,46c5.7-0.1,11.4-0.4,17-1
		c-0.3,2.2-0.3,4.4,0,6.6c-9.6-0.4-19.3-0.6-28.9,0c0.6-10,0.7-20,0.6-30C366.7,401.5,366.5,394.3,366.1,387.1z"/>
</g>
</svg>
